Coordinates
version=1
nRows=13
nColumns=36
inDegrees=yes

Units are S.I. units (second, meters, Newtons, ...)
If the header above contains a line with 'inDegrees', this indicates whether rotational values are in degrees (yes) or radians (no).

endheader
time	pelvis_tilt	pelvis_list	pelvis_rotation	pelvis_tx	pelvis_ty	pelvis_tz	hip_flexion_r	hip_adduction_r	hip_rotation_r	knee_angle_r	knee_angle_r_beta	ankle_angle_r	subtalar_angle_r	mtp_angle_r	hip_flexion_l	hip_adduction_l	hip_rotation_l	knee_angle_l	knee_angle_l_beta	ankle_angle_l	subtalar_angle_l	mtp_angle_l	lumbar_extension	lumbar_bending	lumbar_rotation	arm_flex_r	arm_add_r	arm_rot_r	elbow_flex_r	pro_sup_r	arm_flex_l	arm_add_l	arm_rot_l	elbow_flex_l	pro_sup_l
      3.68333330	      0.48590568	      0.10322125	      3.44751330	      1.26392885	      0.99448483	     -0.07159295	     21.77096710	     -3.53165726	      4.27437287	     14.58440344	      0.25454586	      3.31342776	     -6.75315760	     -7.49999987	     -1.94887007	      8.66773982	      1.14975645	      8.94677704	      0.15615072	     22.82369995	      3.38228471	     -7.49999987	     -6.53499535	     -1.35969115	     -2.80248376	     45.47859182	      4.53490806	     67.95740913	    119.94724381	     89.48554759	     55.24276486	     -9.49551212	     60.53033510	    133.36800646	     92.85314074
      3.70000000	     -0.70558674	      0.32790772	      3.49114499	      1.26584890	      0.98875137	     -0.07118937	     23.03125674	     -3.87666509	      3.78379190	     15.02592749	      0.26225191	      3.95245150	     -6.53113460	     -7.49999987	     -0.53882690	      8.81997522	      0.31028142	      9.64070350	      0.16826202	     23.52600349	      4.66346690	     -7.49999987	     -4.57040590	     -1.89239740	     -2.82959844	     44.85251195	      4.51979884	     67.74208257	    119.96019312	     89.79338056	     54.86265824	     -9.34819693	     60.73316809	    133.13236299	     92.85000446
      3.71666670	     -1.89849006	      0.45933039	      3.63488348	      1.26737936	      0.98734720	     -0.07103663	     24.30553419	     -4.21959143	      3.08292729	     15.47589620	      0.27010534	      4.66014820	     -5.74934663	     -7.49999987	      0.88014876	      8.91552007	     -0.17864684	     10.30936716	      0.17993240	     23.98477638	      5.25192963	     -7.49999987	     -2.73380227	     -2.34812141	     -2.89173055	     44.29434633	      4.66045292	     67.55770728	    120.20597254	     92.41573078	     54.39831888	     -9.22451402	     60.91261555	    132.97792477	     95.45977541
      3.73333330	     -2.81161418	      0.52980980	      3.65351086	      1.26931025	      0.98589825	     -0.07095500	     25.26723318	     -4.43717757	      2.69275555	     15.62721822	      0.27274641	      5.05711233	     -5.20801111	     -7.49999987	      1.91801779	      8.99946661	     -0.54767630	     10.70315672	      0.18680533	     24.20712108	      5.50873356	     -7.49999987	     -1.30514783	     -2.64613410	     -2.81547991	     43.84658906	      4.74437335	     67.70252354	    120.40677349	     92.15403034	     54.05456622	     -9.16138686	     61.24335929	    132.88674655	     95.53690260
      3.75000000	     -3.41432379	      0.55336931	      3.59073622	      1.27030092	      0.98518530	     -0.07104930	     25.97510064	     -4.60513084	      2.50213155	     15.80511115	      0.27585123	      5.38263372	     -4.78877952	     -7.49999987	      2.67538090	      9.03062192	     -0.84430255	     11.07884928	      0.19336240	     24.39003527	      5.68265345	     -7.49999987	     -0.45145474	     -2.78806440	     -2.83461927	     43.84917664	      4.87384289	     68.25254114	    120.40191337	     87.88698364	     53.93077993	     -9.42378714	     61.51685465	    132.86106588	     91.74360669
      3.76666670	     -3.88988139	      0.53227404	      3.47596041	      1.27146226	      0.98411316	     -0.07104103	     26.52421803	     -4.70399727	      2.43577632	     15.75111236	      0.27490877	      5.62371381	     -4.45593482	     -7.49999987	      3.29070310	      8.98652035	     -1.24186822	     11.37886384	      0.19859864	     24.54813442	      6.06821769	     -7.49999987	      0.22118537	     -2.96173871	     -2.74223483	     43.63109276	      5.22175284	     67.88660344	    120.45606554	     91.41067518	     54.00092697	     -9.38949729	     61.18724776	    132.73041803	     94.05362093
      3.78333330	     -4.23946912	      0.51582026	      3.39800328	      1.27175521	      0.98381688	     -0.07110770	     26.92106512	     -4.84796552	      2.54504377	     15.49942341	      0.27051597	      5.77002982	     -4.42091720	     -7.49999987	      3.74484570	      8.98202783	     -1.19125609	     11.61003915	      0.20263341	     24.45185832	      5.81540589	     -7.49999987	      0.64078667	     -3.05514806	     -2.65139375	     43.62402689	      5.44907695	     67.94198174	    120.41254104	     90.64755247	     54.08781248	     -9.29444407	     61.15495294	    132.71579752	     93.26327743
      3.80000000	     -4.34109541	      0.44896838	      3.39594000	      1.27250416	      0.98660200	     -0.07103409	     26.95433184	     -4.91606481	      2.58878693	     15.15266002	      0.26446381	      5.90772377	     -4.35793838	     -7.49999987	      3.89427813	      8.86862334	     -1.34735986	     11.82378232	      0.20636393	     24.50630029	      5.94801962	     -7.49999987	      0.69780609	     -3.05110443	     -2.66976929	     43.70250497	      5.55090308	     68.36395480	    120.35271594	     89.95443226	     54.01499303	     -9.40054729	     61.38584612	    132.72749932	     92.56350634
      3.81666670	     -4.60484663	      0.39747540	      3.40697058	      1.27245317	      0.98883932	     -0.07139691	     27.10754278	     -5.02038763	      2.50712851	     14.73164944	      0.25711579	      6.01195479	     -4.06038650	     -7.49999987	      4.14526048	      8.79902639	     -1.30135223	     11.90075298	      0.20770732	     24.29126852	      5.85036384	     -7.49999987	      1.03072336	     -3.13270312	     -2.63827875	     43.36724245	      5.54877728	     68.36118366	    120.38162156	     89.02824426	     53.59136962	     -9.47545322	     61.71228948	    132.62415335	     91.53995990
      3.83333330	     -4.57502187	      0.35116924	      3.47800671	      1.27271621	      0.98840887	     -0.07159136	     26.93973037	     -5.12482854	      2.46522611	     14.37314533	      0.25085871	      5.95479812	     -3.96313561	     -7.49999987	      4.12985907	      8.71342634	     -1.31755359	     12.02838071	      0.20993485	     24.29063270	      5.99521535	     -7.49999987	      0.79633324	     -3.08782867	     -2.69302544	     43.74003077	      5.48828628	     68.26153488	    120.55906786	     88.16625980	     53.59147102	     -9.50802445	     61.97370163	    132.76141909	     90.69378548
      3.85000000	     -4.33031381	      0.31221698	      3.50143899	      1.27235438	      0.98877750	     -0.07154261	     26.53894751	     -5.20033973	      2.39694445	     13.97236680	      0.24386380	      5.91949253	     -3.71023090	     -7.49999987	      3.79796309	      8.63299214	     -1.36488092	     11.98093787	      0.20910681	     24.30068518	      6.23953382	     -7.49999987	      0.45166248	     -3.09245275	     -2.52250282	     44.10369309	      5.24621116	     68.38207155	    120.98350153	     84.10606437	     53.86446858	     -9.31249236	     62.61332429	    132.41883850	     86.39014612
      3.86666670	     -4.52112424	      0.27885037	      3.56032855	      1.27263223	      0.98792408	     -0.07164672	     26.66234775	     -5.29074917	      2.35533417	     13.70211295	      0.23914699	      5.95834502	     -3.51752611	     -7.49999987	      4.00448656	      8.62497647	     -1.12150815	     11.99997344	      0.20943905	     24.31215779	      6.30145902	     -7.49999987	      0.65971894	     -3.20653909	     -2.25353463	     43.63533618	      5.16216149	     67.34121321	    121.11202763	     92.82562088	     53.78106303	     -9.08153856	     62.19026035	    132.22527355	     94.57322503
      3.88333330	     -4.63950441	      0.22262328	      3.57632736	      1.27259242	      0.98753893	     -0.07165542	     26.74928400	     -5.30453418	      2.36412735	     13.51336890	      0.23585278	      6.02121255	     -3.33657923	     -7.49999987	      4.10991734	      8.58122850	     -0.93665523	     11.95320600	      0.20862280	     24.16611584	      6.35691446	     -7.49999987	      0.78343348	     -3.24717898	     -2.42722907	     43.41458921	      5.19668876	     67.51186463	    121.25480625	     91.83373176	     53.86188040	     -9.12170013	     62.17343959	    132.14545056	     93.57186286
